<svg xmlns="http://www.w3.org/2000/svg" viewBox="0 0 24 24" id="collapse"><path d="M12,10a1,1,0,0,1-.71-.29l-3-3A1,1,0,0,1,9.71,5.29L12,7.59l2.29-2.29a1,1,0,0,1,1.41,1.41l-3,3A1,1,0,0,1,12,10Z"></path><path d="M12 10a1 1 0 0 1-1-1V3a1 1 0 0 1 2 0V9A1 1 0 0 1 12 10zM15 19a1 1 0 0 1-.71-.29L12 16.41 9.71 18.71a1 1 0 0 1-1.41-1.41l3-3a1 1 0 0 1 1.41 0l3 3A1 1 0 0 1 15 19z"></path><path d="M12 22a1 1 0 0 1-1-1V15a1 1 0 0 1 2 0v6A1 1 0 0 1 12 22zM18 16a1 1 0 0 1-.71-.29l-3-3a1 1 0 0 1 0-1.41l3-3a1 1 0 0 1 1.41 1.41L16.41 12l2.29 2.29A1 1 0 0 1 18 16z"></path><path d="M21 13H15a1 1 0 0 1 0-2h6a1 1 0 0 1 0 2zM6 16a1 1 0 0 1-.71-1.71L7.59 12 5.29 9.71A1 1 0 0 1 6.71 8.29l3 3a1 1 0 0 1 0 1.41l-3 3A1 1 0 0 1 6 16z"></path><path d="M9,13H3a1,1,0,0,1,0-2H9a1,1,0,0,1,0,2Z"></path></svg>